<svg id="Wappen" xmlns="http://www.w3.org/2000/svg" xmlns:xlink="http://www.w3.org/1999/xlink" width="258" height="156" viewBox="0 0 258 156"><defs><style>.cls-1{fill:url(#Unbenannter_Verlauf_242);}.cls-2{fill:#b12b28;}.cls-3{fill:#613e18;}.cls-3,.cls-4,.cls-5,.cls-6,.cls-8{fill-rule:evenodd;}.cls-4{fill:#634014;}.cls-5{fill:#432918;}.cls-6{fill:#36250d;}.cls-7{fill:url(#Unbenannter_Verlauf_244);}.cls-8{fill:url(#Neues_Verlaufsfeld_1);}</style><linearGradient id="Unbenannter_Verlauf_242" x1="100.027" y1="64.414" x2="159.91" y2="64.414" gradientUnits="userSpaceOnUse"><stop offset="0" stop-color="#e1be78"/><stop offset="1" stop-color="#e3ab36"/></linearGradient><linearGradient id="Unbenannter_Verlauf_244" x1="95.556" y1="39.419" x2="158.547" y2="75.787" gradientUnits="userSpaceOnUse"><stop offset="0" stop-color="#e1be78"/><stop offset="0.34" stop-color="#fffad1"/><stop offset="0.75" stop-color="#c69632"/><stop offset="0.995" stop-color="#fcdc99"/></linearGradient><linearGradient id="Neues_Verlaufsfeld_1" x1="102.245" y1="33.322" x2="157.421" y2="33.322" gradientUnits="userSpaceOnUse"><stop offset="0" stop-color="#ffe3a8"/><stop offset="1" stop-color="#d2a249"/></linearGradient></defs><path class="cls-1" d="M159.719,31.577a75.457,75.457,0,0,0-9.524-3.1A89.245,89.245,0,0,0,136.6,26.293c-2.248-.2-4.275-.266-6.535-.293h-.192c-2.26.027-4.288.095-6.535.293a89.245,89.245,0,0,0-13.595,2.189,75.457,75.457,0,0,0-9.524,3.1c-.13.051-.192.072-.192.072s.38,23.183.671,34.669a31.8,31.8,0,0,0,1.824,9.919,47.731,47.731,0,0,0,5.192,10.287,41.249,41.249,0,0,0,8.04,8.808,35.947,35.947,0,0,0,3.82,2.8,48.553,48.553,0,0,0,6.523,3.3c.746.318,1.394.616,1.987.816a14.66,14.66,0,0,0,1.885.584,14.709,14.709,0,0,0,1.885-.584c.592-.2,1.241-.5,1.987-.816a48.672,48.672,0,0,0,6.523-3.3,36.152,36.152,0,0,0,3.82-2.8,41.244,41.244,0,0,0,8.039-8.808,47.685,47.685,0,0,0,5.192-10.287,31.776,31.776,0,0,0,1.824-9.919c.292-11.486.671-34.657.671-34.657A1.924,1.924,0,0,0,159.719,31.577Z"/><path class="cls-2" d="M129.246,90.571h-17a41.3,41.3,0,0,0,4.053,3.86,34.689,34.689,0,0,0,3.673,2.711,46.739,46.739,0,0,0,6.272,3.2c.717.308,1.341.6,1.911.79.41.14.781.273,1.094.375V90.571Zm0-12.691A12.471,12.471,0,0,1,122.3,75q-.183-.155-.359-.317H103.171q.186.61.4,1.22a44.14,44.14,0,0,0,2.561,5.848h23.113Zm29.04-19.431H141.717l0,1.283-.009,5.967h16.419C158.177,63.576,158.232,61.09,158.286,58.449Zm.289-15.226H130.261v7.028h28.186C158.493,47.812,158.536,45.42,158.575,43.223Z"/><g id="schatten"><path class="cls-3" d="M158.279,73.353l.011-.044-.008.03Z"/><path class="cls-3" d="M152.2,86.512a41.248,41.248,0,0,1-8.039,8.809,36.152,36.152,0,0,1-3.82,2.8,48.672,48.672,0,0,1-6.523,3.3c-.746.318-1.4.616-1.987.816a14.826,14.826,0,0,1-1.885.584,14.826,14.826,0,0,1-1.885-.584c-.592-.2-1.241-.5-1.987-.816a48.553,48.553,0,0,1-6.523-3.3,35.947,35.947,0,0,1-3.82-2.8,42.251,42.251,0,0,1-6.883-7.17l.081.117a41.778,41.778,0,0,0,6.98,7.445,36.741,36.741,0,0,0,3.882,2.8,48.987,48.987,0,0,0,6.283,3.3c.741.321,1.4.6,1.987.815a11.531,11.531,0,0,0,1.885.588,14.854,14.854,0,0,0,1.885-.588c.592-.2,1.241-.5,1.987-.815a48.687,48.687,0,0,0,6.523-3.3,36.152,36.152,0,0,0,3.82-2.8,41.268,41.268,0,0,0,8.039-8.808,47.986,47.986,0,0,0,5.18-10.342,27.824,27.824,0,0,0,.9-3.21c-.387,1.46-.888,2.873-.888,2.873A47.684,47.684,0,0,1,152.2,86.512Z"/><path class="cls-3" d="M158.61,32.477l-.051-.022a72.005,72.005,0,0,0-9.171-3.006A85.184,85.184,0,0,0,136.3,27.322c-2.164-.192-4.117-.258-6.293-.285h-.185c-2.176.027-4.128.093-6.293.285a85.227,85.227,0,0,0-13.091,2.13,71.206,71.206,0,0,0-9.1,3l-.18.075.007.44a.535.535,0,0,1,.13-.06l.043-.022a71.191,71.191,0,0,1,9.1-3,85.113,85.113,0,0,1,13.091-2.135c2.165-.193,4.117-.267,6.293-.294H130c2.176.027,4.129.093,6.293.286a85.066,85.066,0,0,1,13.091,2.13,72.009,72.009,0,0,1,9.171,3.007l.051.022a1.832,1.832,0,0,1,.184.081v-.428A1.832,1.832,0,0,0,158.61,32.477Z"/><path class="cls-3" d="M123.568,36.027c1.946-.17,3.732-.24,5.656-.272v-.417c-1.923.031-3.707.1-5.656.269A85.189,85.189,0,0,0,110.5,37.728a72.2,72.2,0,0,0-9.161,3.013l-.045.021.007.412a.086.086,0,0,1,.025-.014,74.57,74.57,0,0,1,9.153-3A84.248,84.248,0,0,1,123.568,36.027Z"/><path class="cls-4" d="M141.679,66.85l16.351,0a1.327,1.327,0,0,0,.05-.373l-16.4-.006Z"/><path class="cls-5" d="M150.383,79.346V79.5c0,.111-.018.141-.1.167a3.865,3.865,0,0,0-1.8.949c-.031.028-.071.067-.1.1l-.036-.035c-.01-.009-.012-.046-.014-.064-.011-.1.056-.175.175-.283a3.859,3.859,0,0,1,1.79-.919C150.353,79.41,150.379,79.387,150.383,79.346Zm-3.274-1.9a3.738,3.738,0,0,0-1.429,1,2.4,2.4,0,0,0-.614,1.028c0,.015-.037.1.022.13a2.813,2.813,0,0,1,.573-.857,3.632,3.632,0,0,1,1.4-1,.132.132,0,0,0,.084-.112l.029-.257h0A.067.067,0,0,1,147.109,77.445Zm-3.463-.786a4.774,4.774,0,0,0-1.757,1.862,2.934,2.934,0,0,0-.325,1.3c0,.052,0,.1.042.117a.081.081,0,0,0,.034.01,3.366,3.366,0,0,1,.287-1.2,3.994,3.994,0,0,1,1.738-1.754,1.2,1.2,0,0,0,.085-.517A.245.245,0,0,1,143.646,76.659Zm-4.568.956a2.844,2.844,0,0,0-.7.841,3.582,3.582,0,0,0-.485,2.292,4.132,4.132,0,0,1,.533-1.978,2.572,2.572,0,0,1,.63-.822.861.861,0,0,0,.079-.434v0A.109.109,0,0,1,139.078,77.615Zm-7.265,6.017a.048.048,0,0,0,.014-.084,1.44,1.44,0,0,1-.53-.958h0a1.247,1.247,0,0,0,.4,1.111C131.727,83.68,131.766,83.657,131.813,83.632Zm15.18-14.638a2.927,2.927,0,0,0-1.177.935,2.845,2.845,0,0,0-.681,1.216c-.01.045-.019.106.014.134v0a3.4,3.4,0,0,1,.668-1.059,2.825,2.825,0,0,1,1.164-.915c.11-.055.127-.178.126-.435h0C147.1,68.925,147.061,68.967,146.993,68.994Zm4.527.753a3.508,3.508,0,0,0-1.575.686,3.309,3.309,0,0,0-.977,1.113c-.007.016-.078.114.042.152a3.609,3.609,0,0,1,.9-.943,3.558,3.558,0,0,1,1.571-.718c.06-.012.09-.087.094-.122l0-.244h0C151.581,69.708,151.565,69.747,151.52,69.747Zm3.388,2.225c0,.048-.019.081-.067.075a3.039,3.039,0,0,0-1.762.634,2.723,2.723,0,0,0-.373.314c-.091.065-.071.121-.062.131a1.027,1.027,0,0,0,.1.088,2.893,2.893,0,0,1,.279-.219,3.173,3.173,0,0,1,1.807-.687C154.877,72.3,154.913,72.127,154.908,71.972Zm-20.064,5.767h0c0,.019,0,.038,0,.057a.79.79,0,0,1-.607.715,1.086,1.086,0,0,1-1.185-.227,1.009,1.009,0,0,1-.973.35,1.09,1.09,0,0,1-.718-.512c-.051-.141-.081-.274-.1-.321l-.023,0q-.5.055-1,.069v.3c.341-.009.68-.033,1.019-.071v0a1.6,1.6,0,0,0,.094.316,1.156,1.156,0,0,0,.673.493,1.049,1.049,0,0,0,1-.338,1.192,1.192,0,0,0,1.242.229.811.811,0,0,0,.559-.7A3.248,3.248,0,0,0,134.844,77.739ZM135.7,86.4a1.445,1.445,0,0,1-1.435,0,1.806,1.806,0,0,1-.476-.479c-.025-.046-.07-.072-.082-.063a1.468,1.468,0,0,1-1.127.37,1.55,1.55,0,0,1-1.113-.634,1.628,1.628,0,0,1-.288-.923l-.017.034a1.8,1.8,0,0,0,.325,1.16,1.413,1.413,0,0,0,1.028.651,1.567,1.567,0,0,0,1.163-.408c.012-.009.057.017.082.064a2.439,2.439,0,0,0,.473.492,1.413,1.413,0,0,0,1.414.01,1.7,1.7,0,0,0,.729-1.338A1.322,1.322,0,0,1,135.7,86.4Zm10.443,2.145A4.486,4.486,0,0,0,145.2,89a2.907,2.907,0,0,0-.962,1.26c.006.015.014.043.023.049l.041.027a2.909,2.909,0,0,1,.891-1.1,4.486,4.486,0,0,1,.945-.459c.032-.015.06-.185.057-.284C146.192,88.516,146.177,88.531,146.144,88.541Zm-2.384-1.4a.046.046,0,0,1-.033.041,3.339,3.339,0,0,0-2.228,1.808c-.006.014-.007.084.008.089l.071.022A3.583,3.583,0,0,1,143.7,87.45C143.747,87.439,143.758,87.27,143.76,87.138Zm-4.145-.334a5.549,5.549,0,0,0-1.034,1.307,2.05,2.05,0,0,0-.218,1.257.072.072,0,0,0,.042.063v0a1.94,1.94,0,0,1,.231-1.045,6.054,6.054,0,0,1,.97-1.263,1.284,1.284,0,0,0,.049-.4A.129.129,0,0,1,139.615,86.8ZM136,88.253a1.947,1.947,0,0,0-.493,1.753v0a1.9,1.9,0,0,1,.524-1.483,1.411,1.411,0,0,0,.019-.342A.122.122,0,0,1,136,88.253Zm-1.835,3.574.094-.072c.054-.022-.038-.075-.047-.089a2.974,2.974,0,0,1-.317-.836,3.688,3.688,0,0,1-.1-.756l0,0a5.237,5.237,0,0,0,.1.963A4.073,4.073,0,0,0,134.164,91.827Zm1.8,3.485a1.035,1.035,0,0,1-1.035.208,1.7,1.7,0,0,1-.843-.641c-.028-.033-.091.011-.1.021a1.935,1.935,0,0,1-1.141,1,1.179,1.179,0,0,1-.929-.282,1.027,1.027,0,0,1-.35-.784v0c0,.82.1.873.353,1.053a1.262,1.262,0,0,0,.965.28,1.938,1.938,0,0,0,1.141-1c0-.011.068-.054.1-.021a1.7,1.7,0,0,0,.843.641,1.036,1.036,0,0,0,1.035-.208,1.454,1.454,0,0,0,.4-1.1A1.255,1.255,0,0,1,135.967,95.312Zm-3.856-1.556.149-.125c.037-.025,0-.054-.017-.063a1.2,1.2,0,0,1-.813-1.028l0,0A1.364,1.364,0,0,0,132.111,93.756Zm-29.194-47,0,0a.1.1,0,0,0,.032-.143,1.279,1.279,0,0,1-.139-.528l0-.005V46.1A3.08,3.08,0,0,0,102.917,46.757Zm.9,15.875.02-.018c.04-.036.073-.106.041-.149a2.841,2.841,0,0,1-.315-.487.932.932,0,0,1-.071-.368h0a2.536,2.536,0,0,0,.089.669A1.371,1.371,0,0,0,103.815,62.632Zm4.2,1.294v.025a.949.949,0,0,1-.552.811,1.37,1.37,0,0,1-1.134.195,1.641,1.641,0,0,1-.7-.464c-.076-.085-.16,0-.247.057a5.239,5.239,0,0,1-.739.39,1.128,1.128,0,0,1-1.42-.369,1.308,1.308,0,0,1-.256-.737v0a1.823,1.823,0,0,0,.249,1.012,1.172,1.172,0,0,0,1.447.4,5.253,5.253,0,0,0,.741-.388c.087-.059.146-.166.222-.081a1.807,1.807,0,0,0,.731.491,1.319,1.319,0,0,0,1.134-.195.936.936,0,0,0,.521-1.07Zm-1.13-7.829a1.119,1.119,0,0,1-.554.937,1.187,1.187,0,0,1-1.662-.4c-.018-.048-.174-.079-.233-.028a2.015,2.015,0,0,1-1.184.347,1.077,1.077,0,0,1-.949-.673.978.978,0,0,1-.092-.364,1.282,1.282,0,0,0,.079.576,1.13,1.13,0,0,0,.94.739,2.108,2.108,0,0,0,1.216-.358.138.138,0,0,1,.191.032,1.245,1.245,0,0,0,1.682.512c.417-.277.585-.536.567-1.317Zm-3.735-1.491a.676.676,0,0,1,.061-.038c.041-.022.026-.085,0-.141a1.043,1.043,0,0,1-.3-.707,1.566,1.566,0,0,0,.232.862Zm5.984,1.978a3.528,3.528,0,0,0-.857,1.579,3.758,3.758,0,0,0-.012,1.289,3.655,3.655,0,0,1,.05-.98,3.49,3.49,0,0,1,.826-1.558c.015-.02.016-.058.016-.131V56.52h0A.113.113,0,0,1,109.137,56.584Zm3.762-1.238a3.219,3.219,0,0,0-1.553,3.3v0a3.169,3.169,0,0,1,1.564-2.968c.048-.037.037-.262.037-.414h0A.106.106,0,0,1,112.9,55.346Zm1.9,2.286c-.012.034.078.1.114.095l.1-.009a6.133,6.133,0,0,1,2.147-2.7c.037-.026.034-.163.036-.222v-.2a.121.121,0,0,1-.052.1A6.094,6.094,0,0,0,114.8,57.632Zm-5.411-8.508a2.117,2.117,0,0,0-.782.773,2.977,2.977,0,0,0-.469,2.165.347.347,0,0,0,.031.121v0a3.157,3.157,0,0,1,.512-1.911,1.844,1.844,0,0,1,.706-.746.044.044,0,0,0,.024-.036v-.4A.039.039,0,0,1,109.391,49.124Zm4-1.058a3.317,3.317,0,0,0-1.109.946,4.156,4.156,0,0,0-.754,1.67.229.229,0,0,0,.118.2,4.485,4.485,0,0,1,.736-1.5,3.14,3.14,0,0,1,1.03-.98c.09-.043.106-.131.106-.234v-.227h0C113.517,47.994,113.454,48.035,113.392,48.066Zm4.759-.109a3.578,3.578,0,0,0-1.678.567,2.358,2.358,0,0,0-1.1,1.544.185.185,0,0,0,.126.185,2.649,2.649,0,0,1,1.068-1.353,3.41,3.41,0,0,1,1.606-.617c.084-.009.073-.117.073-.2v-.248h0A.12.12,0,0,1,118.151,47.957Zm1.912,2.253.153-.1a5.1,5.1,0,0,1,1.866-.743c.069-.006.1-.041.1-.19V49c0,.026-.025.037-.06.04a5.485,5.485,0,0,0-2.289,1c-.094.092-.184.153-.046.167ZM110.416,40.4a7.673,7.673,0,0,0-1.639,1.5,3.718,3.718,0,0,0-.536,2.1c0,.024.039.035.074.036a3.836,3.836,0,0,1,.561-1.766,9.5,9.5,0,0,1,1.571-1.545,1.588,1.588,0,0,0,.029-.461l0,0A.2.2,0,0,1,110.416,40.4Zm5.228-1.2a.071.071,0,0,1-.018.047,11.023,11.023,0,0,0-1.578,1.241,3.25,3.25,0,0,0-.85,1.914c0,.022.04.059.061.055l.054-.011a3.886,3.886,0,0,1,.809-1.563,10.28,10.28,0,0,1,1.489-1.24c.041-.037.034-.154.034-.2v-.238Zm5.357-.3a5.81,5.81,0,0,0-2.176,1.211,3.264,3.264,0,0,0-.839,1.678c0,.031.057.041.092.045a3.381,3.381,0,0,1,.768-1.336,6.354,6.354,0,0,1,2.175-1.237c.059-.022.081-.1.084-.165,0-.095,0-.327,0-.327v0A.17.17,0,0,1,121,38.893Zm4.526,2.143a11.429,11.429,0,0,0-1.929.181,2.715,2.715,0,0,0-1.071.7.086.086,0,0,0,.031.122l.189.055a2.549,2.549,0,0,1,.845-.505,11.493,11.493,0,0,1,1.935-.161c.045-.005.106-.053.106-.1v-.347C125.628,41.018,125.566,41.031,125.527,41.036Zm-18.543,7.14c-.144.475-.285.519-.652.781a1.462,1.462,0,0,1-1.172.2,1.417,1.417,0,0,1-.644-.449.086.086,0,0,0-.092-.014,3.653,3.653,0,0,1-.789.4,1.136,1.136,0,0,1-1.372-.448.855.855,0,0,1-.059-.107l-.014-.036c-.012-.034-.023-.068-.033-.1l-.009-.037c-.009-.038-.016-.076-.022-.115l0-.027a1.165,1.165,0,0,1-.011-.145.864.864,0,0,0,0,.088,1.817,1.817,0,0,0,.151.851,1.33,1.33,0,0,0,1.446.466,5.486,5.486,0,0,0,.763-.43.084.084,0,0,1,.091.013,1.6,1.6,0,0,0,.67.489,1.571,1.571,0,0,0,1.173-.219,1.145,1.145,0,0,0,.489-.558,1.267,1.267,0,0,0,.1-.682A.366.366,0,0,1,106.984,48.176Zm18.184-2.866a.318.318,0,0,1-.2.159.172.172,0,0,1-.179-.072,7.524,7.524,0,0,0-4.627-1.772,31.039,31.039,0,0,0-13.43,3.442c-.043.022-.076.115-.04.147a.7.7,0,0,1,.15.206A31.015,31.015,0,0,1,120.239,44a7.524,7.524,0,0,1,4.627,1.772.232.232,0,0,0,.2.1c.076-.019.126-.15.146-.219a3.645,3.645,0,0,0,.051-.822A1.577,1.577,0,0,1,125.168,45.31Zm-6.835,7.268a5.737,5.737,0,0,0-1.462-.328,21.183,21.183,0,0,0-10.061,2.82c-.048.026-.134.122-.113.173a2.8,2.8,0,0,1,.1.278.374.374,0,0,1,.086-.079,21.162,21.162,0,0,1,10.061-2.82,5.11,5.11,0,0,1,1.389.318.251.251,0,0,1,.071.027v-.362A.294.294,0,0,0,118.333,52.578Zm.083,7.045h0v.068c-.048,0-.063,0-.149,0a16.132,16.132,0,0,0-5.408.639,23.705,23.705,0,0,0-5.315,2.34c-.113.067-.107.062,0,.172a.742.742,0,0,1,.086.11,23.923,23.923,0,0,1,5.267-2.288A16.06,16.06,0,0,1,118.306,60c.085,0,.062,0,.111,0Zm18.577,15.989a12.536,12.536,0,0,1-2.375,1.31h0l.115.212.015.033a12.89,12.89,0,0,0,2.243-1.255h0l.072-.02c1.19-.3,5.991-2.022,8.933-2.061a10.5,10.5,0,0,1,5.206,1.253,8.924,8.924,0,0,1,2.186,1.792c.021.023.04.084.118.1a.114.114,0,0,0,.108-.07,3.87,3.87,0,0,0,.264-1.552,3.646,3.646,0,0,1-.264,1.252.115.115,0,0,1-.108.069c-.078-.012-.094-.1-.116-.122a8.877,8.877,0,0,0-2.188-1.767A10.537,10.537,0,0,0,146,73.5c-2.943.04-7.7,1.775-8.893,2.076,0,0-.07.025-.112.038Zm12.539,8.614a.524.524,0,0,1-.375.079,9.024,9.024,0,0,0-1.283-1.287,4.878,4.878,0,0,0-2.026-1,9.944,9.944,0,0,0-3.443-.093,17.224,17.224,0,0,0-6.277,2.155c-.1.071-.149.1-.107.148s.071.088.1.128a17.357,17.357,0,0,1,6.26-2.121,10.03,10.03,0,0,1,3.443.07,4.81,4.81,0,0,1,2.012,1,9.148,9.148,0,0,1,1.3,1.285.526.526,0,0,0,.376-.079,2,2,0,0,0,.187-.823h0A1.185,1.185,0,0,1,149.532,84.226Zm-4.727,8.362c-.043.039-.161,0-.2-.025a4.941,4.941,0,0,0-1.082-.854,5.758,5.758,0,0,0-3.279-.531,9.462,9.462,0,0,0-4.484,1.97c-.083.063-.121.159-.079.191l.11.088a9.641,9.641,0,0,1,4.491-1.985,5.767,5.767,0,0,1,3.279.531,4.965,4.965,0,0,1,1.081.855.225.225,0,0,0,.2-.026,1.2,1.2,0,0,0,.363-1A1.15,1.15,0,0,1,144.805,92.588Z"/><path class="cls-6" d="M158.671,39.93c.074-4.349.121-7.36.121-7.36s-.047,0-.047.027.013.272-.047.336c0,0-.042,2.8-.108,6.924Z"/></g><path class="cls-7" d="M140.18,72.363l.266-.062,1.624-.359c.061,0,.11-.086.116-.114a7.016,7.016,0,0,1,.977-2.229,2.724,2.724,0,0,1,1.49-1.037,2.693,2.693,0,0,1,2.411.2.176.176,0,0,1-.03.3,2.813,2.813,0,0,0-1.164.914,2.9,2.9,0,0,0-.71,1.219c-.011.051-.022.121.027.143.069.048.86.008,1.174.072.059.012.072-.039.115-.105a4.478,4.478,0,0,1,1.423-2.154,2.7,2.7,0,0,1,2.5-.445,1.759,1.759,0,0,1,1.2.967c.018.031.018.125-.052.125a3.59,3.59,0,0,0-1.58.718,3.209,3.209,0,0,0-.972,1.08c-.007.018-.085.124.059.158a9.233,9.233,0,0,1,1.183.343c.045.047.154-.007.177-.042a3.079,3.079,0,0,1,1.965-1.334c1.2-.186,2.342.334,2.529,1.133.026.113.057.255-.04.244a3.144,3.144,0,0,0-1.8.676,2.126,2.126,0,0,0-.338.272c-.092.065-.071.12-.062.13.265.27,1.162.923,1.226,1.826a3.647,3.647,0,0,1-.254,1.652.115.115,0,0,1-.108.069c-.078-.013-.1-.074-.118-.1a8.943,8.943,0,0,0-2.186-1.792,10.5,10.5,0,0,0-5.206-1.253c-2.942.04-7.743,1.76-8.933,2.061l-.072.02S137.681,74.956,140.18,72.363Zm7.617,5.973a2.932,2.932,0,0,0-1.451,1.331c-.02.037-.073.16-.119.121-.288-.025-.776-.1-1.061-.125-.131-.009-.079-.126-.075-.145a2.379,2.379,0,0,1,.618-1.014,3.763,3.763,0,0,1,1.425-1.016.067.067,0,0,0,.05-.1,2,2,0,0,0-1.488-.732,2.589,2.589,0,0,0-1.975.76,4.019,4.019,0,0,0-1.08,2.373c-.028.072-.063.107-.117.108a6.357,6.357,0,0,1-.893.083c-.046-.013-.044-.065-.042-.116a2.917,2.917,0,0,1,.325-1.3,4.767,4.767,0,0,1,1.757-1.862c.117-.08.124-.245.085-.263a2.916,2.916,0,0,0-2.761.269,2.989,2.989,0,0,0-1.254,1.313,8.488,8.488,0,0,0-.55,2.48.2.2,0,0,1-.123.113,9.18,9.18,0,0,0-1.072.277.086.086,0,0,1-.073-.065A3.544,3.544,0,0,1,138.4,78.5a2.844,2.844,0,0,1,.7-.841.12.12,0,0,0-.056-.221,3.138,3.138,0,0,0-2.074.366,2.843,2.843,0,0,0-1.446,2.137,5.086,5.086,0,0,0,.134,1.9c0,.02.019.086-.051.1-.244.117-.9.463-1.136.576-.015.007-.058.018-.07-.019a1.859,1.859,0,0,0-.858-1.147,1.684,1.684,0,0,0-1.426.069,1.755,1.755,0,0,0-.692.72,1.2,1.2,0,0,0,.407,1.457c.02.019.054.059,0,.08-.287.154-.293.19-.51.517a1.371,1.371,0,0,0,.165,1.436,1.552,1.552,0,0,0,1.086.649,1.536,1.536,0,0,0,1.154-.385c.012-.009.057.017.082.064a1.754,1.754,0,0,0,.457.486,1.484,1.484,0,0,0,1.454,0,1.323,1.323,0,0,0,.671-1.329,1.208,1.208,0,0,0-.351-.841c-.042-.049,0-.077.107-.148a17.285,17.285,0,0,1,6.277-2.133,10,10,0,0,1,3.443.071,4.811,4.811,0,0,1,2.011,1,9.11,9.11,0,0,1,1.3,1.286.524.524,0,0,0,.375-.079,2.111,2.111,0,0,0,.046-1.655,5.122,5.122,0,0,0-1.228-1.887c-.01-.009-.012-.045-.013-.064-.011-.1.048-.144.166-.253a3.88,3.88,0,0,1,1.8-.954c.087-.005.121-.068.065-.168A2.1,2.1,0,0,0,147.8,78.336ZM159.91,31.687s-.379,23.171-.671,34.658a31.775,31.775,0,0,1-1.824,9.918,47.685,47.685,0,0,1-5.192,10.287,41.22,41.22,0,0,1-8.039,8.808,36.012,36.012,0,0,1-3.82,2.8,48.806,48.806,0,0,1-6.523,3.3c-.746.318-1.4.615-1.987.815a14.709,14.709,0,0,1-1.885.584,14.66,14.66,0,0,1-1.885-.584c-.593-.2-1.241-.5-1.987-.815a48.687,48.687,0,0,1-6.523-3.3,35.808,35.808,0,0,1-3.82-2.8,41.225,41.225,0,0,1-8.04-8.808,47.731,47.731,0,0,1-5.192-10.287,31.8,31.8,0,0,1-1.824-9.918c-.291-11.487-.671-34.669-.671-34.669s.062-.022.192-.073a75.293,75.293,0,0,1,9.524-3.094,89.123,89.123,0,0,1,13.6-2.19c2.247-.2,4.275-.265,6.535-.293h.192c2.26.028,4.287.095,6.535.293a89.123,89.123,0,0,1,13.6,2.19,75.293,75.293,0,0,1,9.524,3.094A1.924,1.924,0,0,1,159.91,31.687ZM102.939,73.875h18.2a10.064,10.064,0,0,1-2.681-6.715v-.288h-16.61A31.177,31.177,0,0,0,102.939,73.875Zm26.311,16.7h-17a41.176,41.176,0,0,0,4.052,3.86,34.689,34.689,0,0,0,3.673,2.711,46.8,46.8,0,0,0,6.272,3.2c.718.308,1.342.6,1.911.79.41.14.782.273,1.094.375V90.573Zm0-7.915H106.622q.9,1.624,1.948,3.23a35.858,35.858,0,0,0,2.875,3.784H129.25Zm0-4.776a12.471,12.471,0,0,1-6.949-2.876c-.123-.1-.242-.209-.36-.317H103.175c.125.407.258.813.4,1.22a44.067,44.067,0,0,0,2.561,5.848H129.25Zm0-42.409c-1.927.031-3.706.1-5.657.275a85.067,85.067,0,0,0-13.073,2.121,71.854,71.854,0,0,0-9.159,3,.448.448,0,0,0-.044.02c.13,7.446.328,18.258.5,25.084h16.636l-.01-6.237c-.048,0-.063,0-.149,0a16.111,16.111,0,0,0-5.408.664,23.781,23.781,0,0,0-5.315,2.316c-.113.067-.107.062,0,.171a2.823,2.823,0,0,1,.458.862.979.979,0,0,1-.538,1.083,1.37,1.37,0,0,1-1.134.2,1.744,1.744,0,0,1-.719-.489c-.076-.084-.136.022-.223.082a5.239,5.239,0,0,1-.739.39,1.167,1.167,0,0,1-1.444-.393,1.267,1.267,0,0,1,.034-1.511c.154-.161.412-.28.595-.446.04-.036.073-.106.041-.149a2.88,2.88,0,0,1-.315-.487,1.3,1.3,0,0,1,.379-1.38,1.328,1.328,0,0,1,1.369-.113c.279.122.5.518.675.767.038.055.087.09.142.053l.437-.259c.057-.039.026-.162,0-.226-.542-1.348-.671-2.265-.162-3.218a2.368,2.368,0,0,1,1.527-1.214,1.722,1.722,0,0,1,1.209.077c.036.017.025.088,0,.119a3.53,3.53,0,0,0-.857,1.578,3.336,3.336,0,0,0,.067,1.562c.039.088.084.122.152.1.185-.058.781-.288,1.034-.348.077-.019.029-.144.016-.218a4.173,4.173,0,0,1,.1-2.537,3.082,3.082,0,0,1,2.919-1.7c.207,0,.491.2.328.325a3.219,3.219,0,0,0-1.553,3.3.112.112,0,0,0,.119.089c.413-.119.852-.232,1.249-.357.069-.022.055-.136.06-.208a4.533,4.533,0,0,1,1-2.8,3.48,3.48,0,0,1,2.864-1.16,1.205,1.205,0,0,1,.536.3.184.184,0,0,1-.03.213,5.987,5.987,0,0,0-2.321,2.911c-.012.033.054.1.09.094.617-.047,1.275-.139,1.891-.2.092-.008.1-.022.114-.077a3.218,3.218,0,0,1,1.382-1.76.554.554,0,0,0,.107-.077l0-3.011a.259.259,0,0,0-.072-.027,5.653,5.653,0,0,0-1.462-.328,21.159,21.159,0,0,0-10.061,2.82c-.049.026-.135.122-.113.173.386.913.153,1.448-.363,1.79a1.234,1.234,0,0,1-1.7-.4.139.139,0,0,0-.191-.032,2.008,2.008,0,0,1-1.184.348,1.078,1.078,0,0,1-.949-.673,1.347,1.347,0,0,1,.88-1.709c.071-.021.058-.077.009-.133a1.142,1.142,0,0,1,.244-1.7,1.248,1.248,0,0,1,1.825.708c.019.067.024.042.091.023a1.792,1.792,0,0,0,.59-.224c.08-.037.175-.32.177-.393.048-1.542-.025-2.511,1-3.512.446-.435,1.9-.778,2.266-.3.025.033.034.07,0,.09a2.1,2.1,0,0,0-.782.773,2.977,2.977,0,0,0-.469,2.165c.009.041.012.139.052.126.438-.146.871-.3,1.279-.476.046-.019,0-.1,0-.149a4.385,4.385,0,0,1,.879-2.914c.668-.735,2.329-1.479,3.138-.775.075.065,0,.162-.085.206a3.223,3.223,0,0,0-1.094.931,4.191,4.191,0,0,0-.78,1.671c-.014.065.079.21.144.2.359-.074,1.032-.158,1.39-.279.189-.065.136-.108.169-.3a3.371,3.371,0,0,1,3.034-3.086,2.429,2.429,0,0,1,1.614.244,1.69,1.69,0,0,1,.338.3.127.127,0,0,1-.067.2,3.53,3.53,0,0,0-1.659.573,2.361,2.361,0,0,0-1.1,1.547c-.007.077.035.178.112.178.465,0,1.044-.006,1.509-.041a.127.127,0,0,0,.124-.1,3.15,3.15,0,0,1,2-1.929,2.873,2.873,0,0,1,2.977.678c.1.128.077.167.007.173a5.472,5.472,0,0,0-2.289,1c-.095.092-.184.153-.046.167h9.436Zm7.768,40.181.007,0a12.56,12.56,0,0,1-2.4,1.321l.017-.007.115.213a1.385,1.385,0,0,1,.106.663.753.753,0,0,1-.563.727,1.192,1.192,0,0,1-1.241-.215,1.011,1.011,0,0,1-.979.344,1.065,1.065,0,0,1-.7-.53c-.051-.141-.082-.274-.1-.321-.339.038-.67.065-1.011.074l-.01,23.354v.367h0c.371-.1.9-.292,1.515-.5.57-.193,1.194-.482,1.911-.79a46.739,46.739,0,0,0,6.272-3.2,34.486,34.486,0,0,0,3.673-2.711,39.862,39.862,0,0,0,7.731-8.545,46.385,46.385,0,0,0,4.993-9.979A31.023,31.023,0,0,0,158.1,66.6h-16.4v.558a10.528,10.528,0,0,1-4.69,8.494Zm21.273-17.2h-16.57l0,1.283L141.71,65.7h16.419C158.182,63.578,158.237,61.092,158.291,58.451Zm.142-7.183h-16.7v1.38l0,3.011,0,1.776h16.589C158.353,55.422,158.394,53.336,158.433,51.268Zm.147-8.043H130.266v7.028h28.186C158.5,47.814,158.541,45.422,158.58,43.225Zm.041-2.338a.468.468,0,0,0-.045-.02,71.839,71.839,0,0,0-9.158-3,85.067,85.067,0,0,0-13.073-2.121c-2.093-.186-3.988-.253-6.079-.281v6.858H158.6Q158.608,41.587,158.621,40.887Zm.139-8.22a1.832,1.832,0,0,0-.184-.081,72.012,72.012,0,0,0-9.158-3,85.07,85.07,0,0,0-13.073-2.123c-2.161-.193-4.11-.258-6.284-.285h-.184c-2.174.027-4.123.092-6.284.285a85.07,85.07,0,0,0-13.073,2.123,72.027,72.027,0,0,0-9.159,3l-.183.071s.048,2.974.122,7.3a.391.391,0,0,1,.061-.032,72.171,72.171,0,0,1,9.159-3A85.189,85.189,0,0,1,123.593,34.8c2.161-.192,4.119-.315,6.292-.342h.184c2.174.027,4.115.15,6.276.342a85.189,85.189,0,0,1,13.073,2.121,72.157,72.157,0,0,1,9.158,3,.318.318,0,0,1,.061.032C158.712,35.637,158.76,32.667,158.76,32.667ZM143.4,87.954a3.486,3.486,0,0,0-1.107,1.27c-.017.03-.039.125-.083.1l-.679-.206c-.015,0-.015-.076-.008-.09a3.57,3.57,0,0,1,2.228-1.807c.048-.02.033-.064.023-.09-.351-.86-2.117-.787-2.978-.237a3.742,3.742,0,0,0-1.578,2.285c-.01.064.02.115-.023.126a3.939,3.939,0,0,1-.735.177.076.076,0,0,1-.073-.072,2.053,2.053,0,0,1,.218-1.258,6.39,6.39,0,0,1,1.034-1.307.138.138,0,0,0-.007-.2,1.592,1.592,0,0,0-1.632,0,3.146,3.146,0,0,0-1.519,1.792,3.487,3.487,0,0,0,.04,1.828c.008.023.035.076-.006.094-.251.1-.439.211-.684.309-.012,0-.075.018-.087-.015a2.02,2.02,0,0,1,.279-2.357c.057-.048.086-.11-.025-.149a1.881,1.881,0,0,0-1.7.616,2.165,2.165,0,0,0-.376,2.11,2.974,2.974,0,0,0,.317.836c.009.014.1.066.047.089-.178.138-.311.235-.483.368-.011.009-.043.025-.059,0a1.554,1.554,0,0,0-.928-.762,1.092,1.092,0,0,0-1.018.28,1.158,1.158,0,0,0,.473,1.929c.02.009.054.038.016.063a1.887,1.887,0,0,0-.609.681,1.209,1.209,0,0,0,.273,1.3,1.187,1.187,0,0,0,.929.282,1.933,1.933,0,0,0,1.14-1c.006-.011.069-.054.1-.021a1.7,1.7,0,0,0,.843.641,1.038,1.038,0,0,0,1.035-.208,1.119,1.119,0,0,0,.356-1.28,1.95,1.95,0,0,0-.646-.693c-.041-.032-.007-.111.076-.174a9.5,9.5,0,0,1,4.488-1.987,5.765,5.765,0,0,1,3.279.53,4.946,4.946,0,0,1,1.082.855c.042.024.16.064.2.024a1.271,1.271,0,0,0,.114-1.753,2.087,2.087,0,0,0-.659-.525c-.009-.006-.017-.035-.023-.05a2.9,2.9,0,0,1,.962-1.259,4.368,4.368,0,0,1,.945-.459c.069-.02.06-.061.023-.148C145.79,87.5,144.165,87.464,143.4,87.954ZM123.968,39.729a1.938,1.938,0,0,1,1.69,1.278c.014.043-.055.087-.1.092a11.482,11.482,0,0,0-1.934.161,3.092,3.092,0,0,0-1.071.7.085.085,0,0,0,.031.122,3.876,3.876,0,0,1,1.959,1.1,2.114,2.114,0,0,1,.651,2.169.316.316,0,0,1-.172.183.231.231,0,0,1-.2-.1,6.621,6.621,0,0,0-2.315-1.334,6.551,6.551,0,0,0-2.312-.438,31.025,31.025,0,0,0-13.43,3.442c-.043.022-.076.114-.04.146a1.248,1.248,0,0,1,.289.963c-.144.475-.285.518-.652.78a1.256,1.256,0,0,1-1.816-.253.086.086,0,0,0-.092-.014,3.864,3.864,0,0,1-.789.414,1.128,1.128,0,0,1-1.372-.44,1.416,1.416,0,0,1,.657-1.908.1.1,0,0,0,.032-.143,1.156,1.156,0,0,1,.445-1.563c.5-.289,1.613-.475,1.912.476a.081.081,0,0,0,.106.061,5.717,5.717,0,0,0,.737-.285c.056-.026.088-.15.063-.264a4.467,4.467,0,0,1,.635-3.6c1.046-1.186,2.288-1.729,3.6-1.2.053.021,0,.125-.036.166-.517.522-1.233.875-1.615,1.5a3.738,3.738,0,0,0-.56,2.1c0,.037.089.043.124.031.658-.223,1.486-.509,2.272-.756.052-.016.151-.019.147-.073a6.62,6.62,0,0,1,.092-1.313,3.614,3.614,0,0,1,2.159-2.777,3.309,3.309,0,0,1,2.55-.038c.052.019.081.128.041.164a11.248,11.248,0,0,0-1.578,1.266,3.151,3.151,0,0,0-.826,1.89c0,.022.016.059.037.055a19.334,19.334,0,0,1,2.165-.4.14.14,0,0,0,.128-.117c.109-.669.654-2.538,1.57-3.141a3.954,3.954,0,0,1,3.328-.612,1.752,1.752,0,0,1,.642.543c.039.049-.033.143-.091.165a6.388,6.388,0,0,0-2.176,1.236,3.028,3.028,0,0,0-.815,1.654c0,.044.067.047.11.046.626-.01,1.273,0,1.9.021a.114.114,0,0,0,.105-.064,3.575,3.575,0,0,1,1.6-1.767A4.235,4.235,0,0,1,123.968,39.729Z"/><path class="cls-8" d="M150.394,30.536a68.277,68.277,0,0,1,6.942,2.26c.06.023.066.088.069.152.028.5.011.535.008,1.037,0,.113-.071.131-.192.086-1.381-.508-3.363-1.2-5.169-1.662-.026-.007-.07.007-.07.033v.615c0,.027.032.051.058.059,1.846.508,3.586,1.071,5.246,1.674a.091.091,0,0,1,.062.082c.029.5.018,1,0,1.495,0,.028,0,.068-.03.058-1.621-.6-3.48-1.212-5.349-1.734-.024-.006-.069,0-.07.023l-.023.579a.09.09,0,0,0,.058.082,53.226,53.226,0,0,1,5.315,1.733.131.131,0,0,1,.081.106c.021.44,0,.889-.008,1.33,0,.03,0,.107-.1.071a71.384,71.384,0,0,0-6.909-2.24c-.039-.01-.058-.065-.058-.1.019-1.941.068-3.737.114-5.676,0-.021,0-.063.024-.058Zm-8.018,4.2c.5.086,1.042.155,1.449.237.046.009.112-.024.112-.071-.006-.66,0-1.43-.012-2.031,0-.045.02-.047.064-.04,1.19.212,2.347.446,3.529.7.024.006.165.025.165.1-.008.692-.024,1.281-.042,1.973a.13.13,0,0,0,.086.127c.463.106.907.218,1.348.319.116.027.136.008.138-.037.07-1.444.094-3.756.116-5.708,0-.026-.011-.064-.037-.07-.485-.112-.946-.23-1.446-.338-.045-.01-.07.066-.073.112-.048.713-.028,1.374-.085,2.088,0,.026,0,.039-.027.034-1.184-.245-2.448-.511-3.626-.729-.032-.007-.017-.063-.016-.1.007-.7.006-1.39.01-2.09a.106.106,0,0,0-.081-.093c-.465-.081-.862-.146-1.336-.219h0c-.035,0-.068.044-.069.08-.019.877-.142,4.665-.168,5.672Zm-6.1-6.593a1.292,1.292,0,0,0-1.32,1.06l-.031,3.825a.994.994,0,0,0,.764.926c1.953.184,3.874.357,6.054.689.033.005.1-.024.1-.057l0-1.33a.161.161,0,0,0-.089-.094c-1.452-.184-3.37-.441-5.083-.62a.241.241,0,0,1-.185-.223v-2.6c0-.11.156-.167.266-.158,1.693.136,3.382.447,5.072.628.044,0,.114-.023.115-.068l.035-1.221a.119.119,0,0,0-.093-.105c-1.879-.273-3.317-.427-5.607-.655Zm-2.595-.181h0c-1.866-.079-3.892-.135-5.767-.061-.39.016-.923.348-.929.738l-.026,2.07c-.006.425.554.757.978.766,1.48.033,2.788.007,4.218.1.106.008.2.07.2.176l-.011.419a.136.136,0,0,1-.143.146c-1.668,0-3.413-.079-5.1.055-.088.007-.084-.016-.09.072l-.074,1.227-.008.1a52.215,52.215,0,0,1,6.026,0,1.023,1.023,0,0,0,.976-.842l.019-2.005c0-.412-.507-.718-.838-.739-1.413-.087-3.022-.04-4.462-.078a.15.15,0,0,1-.139-.158l.028-.465c0-.089.06-.117.15-.121,1.423-.051,3.546.017,5,.063a.231.231,0,0,0,.193-.224l0-1.016c0-.054-.1-.215-.2-.217m-8.508,3.7a1.01,1.01,0,0,0,.629-.992,13.871,13.871,0,0,0-.067-1.807,1.024,1.024,0,0,0-.959-.789c-1.353.024-4.292.4-5.958.608l-.008,5.791,0,.075,1.506-.2a.045.045,0,0,0,.041-.05l0-1.674,3.034-.326c.265-.049.576.147.818.539a2.8,2.8,0,0,1,.366,1.086l1.493-.111c.032,0,.1,0,.093-.03A3.161,3.161,0,0,0,125.174,31.666Zm-1.05-1.236a.551.551,0,0,1-.446.53l-3.4.333-.029-.023,0-1.307.028-.014,3.558-.344a.244.244,0,0,1,.282.219Zm-5.3-1.764v.02h0Zm-.9,1.2a.9.9,0,0,0-.35-.633.97.97,0,0,0-.731-.256c-1.738.271-3.486.642-5.248,1.021a1.6,1.6,0,0,0-.737.458,1.025,1.025,0,0,0-.329.659l.014,3.577a1.391,1.391,0,0,0,.339.85.769.769,0,0,0,.652.352c1.746-.385,3.506-.73,5.229-1.031a1.588,1.588,0,0,0,.858-.533,1.157,1.157,0,0,0,.314-.739Zm-1.733,3.341a.4.4,0,0,1-.157.334.928.928,0,0,1-.382.151c-.917.185-2.254.433-3.194.608a.334.334,0,0,1-.281-.055.421.421,0,0,1-.1-.323l0-2.322a.462.462,0,0,1,.129-.311.788.788,0,0,1,.384-.19c.929-.176,2.146-.414,3.1-.551a.529.529,0,0,1,.355.063.375.375,0,0,1,.175.341Zm-6.275-1.616a.87.87,0,0,0-.379-.628,1.165,1.165,0,0,0-.924-.19c-2.083.533-4.17,1.326-6.259,2.089a.2.2,0,0,0-.1.166l0,4.691.012,1.057s1.509-.568,1.833-.674c.044-.014.044-.055.044-.1l-.033-1.666c0-.047.008-.116.052-.129l5.2-1.605a.972.972,0,0,0,.442-.322.759.759,0,0,0,.166-.5Zm-1.681,1.74c0,.147-.208.316-.348.357l-3.793,1.236c-.036.01-.1,0-.1-.04l.006-1.146c0-.055.064-.1.116-.114a34.643,34.643,0,0,1,3.852-1.291c.115-.032.223.1.233.2A5.863,5.863,0,0,1,108.232,33.329Z"/><path class="cls-5" d="M104.114,33.917c-.052.015-.118.06-.118.115l0-.293c0-.055.064-.1.116-.115h0a34.373,34.373,0,0,1,3.841-1.287c.115-.033.225.1.235.195l.029.286c-.01-.094-.136-.23-.251-.2a34.6,34.6,0,0,0-3.854,1.3h0m5.841-.121a.76.76,0,0,1-.165.494.985.985,0,0,1-.442.322L104.157,36.2c-.042.013-.051.076-.051.122l.007.291c0-.046,0-.114.044-.127l5.191-1.59a.977.977,0,0,0,.442-.322.758.758,0,0,0,.165-.494V33.8Zm-5.817,4.2c0,.046,0,.087-.044.1-.323.106-1.837.681-1.837.681v.236a.436.436,0,0,1,0,.055s1.514-.568,1.837-.674c.045-.014.045-.055.044-.1Zm11.9-7.379a.533.533,0,0,0-.354-.063c-.953.137-2.167.375-3.094.551a.775.775,0,0,0-.383.189.46.46,0,0,0-.129.311v.318h0a.46.46,0,0,1,.129-.311.775.775,0,0,1,.383-.189c.927-.176,2.141-.414,3.094-.551a.534.534,0,0,1,.354.064.369.369,0,0,1,.17.339v0l.005-.315A.376.376,0,0,0,116.037,30.613Zm.717,4.243c-1.719.3-3.475.644-5.216,1.028a.768.768,0,0,1-.651-.351,1.406,1.406,0,0,1-.336-.8v-.027l0-.022V35a1.509,1.509,0,0,0,.339.8c.207.242.45.413.648.369,1.742-.385,3.5-.7,5.219-1a1.589,1.589,0,0,0,.856-.532,1.153,1.153,0,0,0,.314-.737v-.319a1.153,1.153,0,0,1-.314.737A1.589,1.589,0,0,1,116.754,34.856Zm7.088-5.251-3.558.344-.028.014v.32l.028-.014,3.558-.343a.242.242,0,0,1,.282.218v-.32A.244.244,0,0,0,123.842,29.605Zm1.963,1.405,0-.358a1.043,1.043,0,0,1-.629,1.014,2.007,2.007,0,0,1,.213.187A.984.984,0,0,0,125.805,31.01Zm.257,2.811-1.493.111a2.8,2.8,0,0,0-.366-1.086c-.242-.392-.553-.588-.818-.539l-3.034.326v.3l3.033-.327c.265-.049.576.148.818.54a2.805,2.805,0,0,1,.366,1.085l1.493-.11c.032,0,.1,0,.093-.031v-.3C126.155,33.823,126.094,33.819,126.062,33.821Zm-5.748.536-1.5.194v.3h0l1.5-.2a.044.044,0,0,0,.041-.049v-.3A.044.044,0,0,1,120.314,34.357Zm13.372-4.635a.23.23,0,0,0,.193-.224v-.3a.231.231,0,0,1-.193.224c-1.453-.046-3.576-.114-5-.063-.09,0-.146.032-.15.121l-.021.288h0c0-.09.081-.106.171-.109C130.11,29.609,132.233,29.677,133.686,29.722Zm-5.748,2.057c1.48.033,2.788.006,4.218.1.1.007.192.062.191.166l.009-.29c0-.106-.094-.168-.2-.176-1.43-.094-2.738-.068-4.218-.1-.424-.009-.984-.341-.978-.766v.3C126.954,31.438,127.514,31.77,127.938,31.779Zm5.015,1.989a52.215,52.215,0,0,0-6.026,0v.3a52.215,52.215,0,0,1,6.026,0,1.022,1.022,0,0,0,.976-.841v-.3A1.023,1.023,0,0,1,132.953,33.768Zm8.874-3.572c-1.69-.181-3.379-.492-5.072-.628-.11-.009-.266.048-.266.158v.3c0-.11.156-.167.266-.159,1.693.137,3.382.447,5.072.629.044,0,.114-.023.115-.068v-.3C141.941,30.173,141.871,30.2,141.827,30.2Zm-.083,4.451c-2.18-.332-4.1-.5-6.054-.689a.994.994,0,0,1-.764-.926v.3a.994.994,0,0,0,.764.926c1.953.184,3.856.349,6.037.681.032,0,.1-.024.1-.057l.018-.29C141.84,34.624,141.777,34.652,141.744,34.647Zm5.933-.709c0-.117,0-.174.006-.3,0-.079-.141-.1-.165-.1-1.182-.256-2.339-.49-3.529-.7-.044-.007-.065-.005-.064.04,0,.114,0,.174,0,.3h0c0-.045.016-.047.06-.039,1.19.212,2.347.446,3.529.7C147.542,33.842,147.675,33.862,147.677,33.938Zm-3.852,1.039c-.407-.082-.954-.151-1.449-.237v.254c.494.086,1.024.145,1.432.228.045.009.112-.024.112-.071l.013-.226A.106.106,0,0,1,143.825,34.977Zm5.25,1.083c-.441-.1-.885-.213-1.348-.319a.13.13,0,0,1-.086-.127v.3a.132.132,0,0,0,.086.127c.463.106.889.215,1.33.316.115.028.135.008.137-.037l.019-.3C149.211,36.068,149.19,36.087,149.075,36.06Zm8.146-1.989c-1.381-.508-3.363-1.2-5.169-1.662-.026-.007-.07.007-.07.033v.293c0-.025.048-.039.073-.033,1.806.461,3.762,1.144,5.143,1.653.121.044.191.027.192-.086l.021-.259C157.4,34.1,157.332,34.112,157.221,34.071Zm.1,2.354c-1.621-.6-3.48-1.212-5.349-1.734-.024-.006-.069,0-.07.023l-.014.29a.142.142,0,0,1,.084-.013c1.869.522,3.71,1.13,5.331,1.733.026.009.03-.031.031-.057l.017-.3C157.349,36.4,157.345,36.434,157.32,36.425Zm-.1,2.19a71.384,71.384,0,0,0-6.909-2.24c-.039-.01-.058-.065-.058-.1v.3c0,.04.019.095.058.1a71.127,71.127,0,0,1,6.891,2.231c.1.035.1-.041.1-.072l.017-.271C157.319,38.6,157.3,38.645,157.223,38.615Z"/><path d="M207.593,118.258v3.1H232V124H207.593v3.1H232v2.634H204.488V115.624H232v2.634Zm-9.876,3.079H178.858V115.6h-3.1v14.108h3.1v-5.267h18.859v5.267h3.1V115.6h-3.1Zm-51.166-2.6v7.875a3.115,3.115,0,0,0,3.112,3.134l22.477-.023v-3.1H150.083a.417.417,0,0,1-.406-.382v-7.082a.5.5,0,0,1,.507-.437h21.957v-3.1H149.7A3.137,3.137,0,0,0,146.551,118.74Zm-6.832,2.615-19.8.008h0a.493.493,0,0,1-.523-.487V118.76a.5.5,0,0,1,.52-.5h22.472v-2.635l-23.043,0a3.1,3.1,0,0,0-3.063,3.132v2.115a3.136,3.136,0,0,0,3.135,3.135l19.8-.007a.5.5,0,0,1,.521.488h0l0,2.122a.491.491,0,0,1-.521.487H116.707v2.634h23.014a3.127,3.127,0,0,0,3.133-3.12h0v-2.121h0A3.146,3.146,0,0,0,139.719,121.355Zm-27.026,8.306v.037h-3.12v-.554a3.135,3.135,0,0,0-3.134-3.135H89.146v3.711h-3.1V115.612l23.5,0v0a3.114,3.114,0,0,1,3.118,3.11l0,3.058a3.116,3.116,0,0,1-3,3.133A5.219,5.219,0,0,1,112.693,129.661Zm-3.14-10.4a.54.54,0,0,0-.529-.535l-19.878-.006v4.186H109.08a.509.509,0,0,0,.47-.518h0ZM82.3,118.729l0,7.876h0a3.1,3.1,0,0,1-3.113,3.121H59.341a3.127,3.127,0,0,1-3.149-3.111V118.74a3.137,3.137,0,0,1,3.15-3.122l19.893,0h0A3.1,3.1,0,0,1,82.3,118.729Zm-3.093.53a.55.55,0,0,0-.544-.533l-18.842,0a.5.5,0,0,0-.507.437v7.082a.414.414,0,0,0,.405.382H78.712a.53.53,0,0,0,.5-.517Zm-26.661-.53,0,4.16a3.116,3.116,0,0,1-3.127,3.12H29.1v3.714H26V115.615H49.419v0A3.116,3.116,0,0,1,52.55,118.729Zm-3.107.532a.54.54,0,0,0-.529-.535L29.1,118.72v4.186H48.971a.506.506,0,0,0,.47-.518ZM157.181,33.424c0,.127-.007.35-.014.469l-.007,0-.364-.138-.255-.1-.03-.011c-.632-.225-1.239-.432-1.816-.62s-1.123-.356-1.634-.5l-.012-.005-.013,0-.448-.127-.466-.13-.393-.108v.032l0,.284,0,.283,0,.12v.394l.245.067.172.047.3.086.305.086c.659.19,1.317.39,1.969.6s1.3.425,1.933.649l.153.053.346.117v.152c0,.132-.014.991-.014.991l-.021-.007-.335-.1-.233-.073c-.669-.236-1.375-.472-2.1-.7s-1.465-.45-2.2-.659l-.576-.165-.01.546-.009.532v.012l.232.071.452.132.442.132.179.055.178.055q.953.289,1.835.588c.586.2,1.206.386,1.735.589l.055.019.058.025.1.038.189.072a8.776,8.776,0,0,1-.026,1.045l-.012,0-.335-.12-.065-.023-.064-.023c-1.074-.389-2.141-.717-3.1-1.025s-2.131-.674-3.008-.909V36.2c.006-.473.022-1.37.038-2.214s.047-3.132.056-3.2c.095.014,2.117.594,3.093.909s1.96.655,2.925,1.013l.035.014.219.077.314.113,0,0C157.179,33.039,157.181,33.3,157.181,33.424Zm-8.133-2.95c-.144-.039-.293-.075-.441-.109s-.422-.094-.559-.124l0,.026c0,.019,0,.092,0,.111l0,.057,0,.089,0,.087-.006.2c0,.066,0,.132,0,.2v.055c0,.173-.008.349-.015.528s-.017.359-.032.542l0,.125-.009.226-.009,0-.267-.055-.2-.041-.167-.036-.166-.035-1.256-.26c-.433-.088-.873-.177-1.3-.26l-.062-.011-.061-.012-.318-.059c-.106-.019-.212-.038-.317-.055l-.084-.016.01-.628.009-.608,0-.218V29.48c0-.009,0-.116,0-.125h0c-.066-.009-.2-.032-.267-.042l-.2-.032q-.121-.021-.243-.039c-.081-.013-.256-.039-.337-.05V29.2l0,.163v.086c-.009.314-.022.758-.037,1.261s-.033,1.064-.05,1.613c0,.16-.01.316-.015.469s-.011.3-.017.442c-.009.236-.017.457-.023.658s-.011.522-.012.682v.013c.061.009.224.043.279.052l.162.028.275.046c.1.016.3.048.419.066l.017,0,.005-.411.006-.311s0-.171.01-.389.01-.485.01-.687v-.125c0-.066,0-.209.006-.25V32.6c.027,0,.132.022.172.03l.04.008.045.008c.2.035.687.13,1.291.25s1.326.265,1.992.4l.087.017.086.017.221.049.219.049.014,0c0,.06-.007.331-.008.391l0,.161,0,.162c0,.13,0,.251-.007.368s-.006.231-.009.348l0,.141,0,.14,0,.13-.009.218,0,.015.337.079.231.054.205.049.323.074v-.006l.009-.321,0-.153c.021-.639.037-1.372.05-2.144s.022-1.583.031-2.376V30.48l-.011,0Zm-10.764-1.94c-.905-.1-1.621-.173-1.943-.208a1.087,1.087,0,0,0-.779.266.953.953,0,0,0-.4.637c-.024.229-.009,1.866-.009,1.866l-.01,1.956a.805.805,0,0,0,.05.29.616.616,0,0,0,.148.227.829.829,0,0,0,.385.206,1.111,1.111,0,0,0,.238.033h0l.057,0,.057.005c.8.075,1.653.155,2.53.247s1.706.176,2.6.3l.4.061.008-.539v-.464l-.466-.067-.351-.051-.039,0-.039-.005c-.694-.089-1.383-.164-2.128-.254s-1.434-.18-2.147-.251a.169.169,0,0,1-.108-.057.178.178,0,0,1-.045-.117v-2.9a.3.3,0,0,1,.1-.264.517.517,0,0,1,.3-.1c.462.036,4.443.571,5.073.656l.011-.492c0-.133,0-.265,0-.407V28.95C140.921,28.828,139.459,28.668,138.284,28.534Zm-12.54,4.122a2.774,2.774,0,0,1,.274,1.012l-1.256.076a3.956,3.956,0,0,0-.386-1.041,1.027,1.027,0,0,0-.988-.6c-.543.063-3.222.337-3.232.345s0,1.716,0,1.716l-.58.078-.58.077,0-2.761,0-2.727s5.17-.591,5.743-.556.7.334.733.636a11.941,11.941,0,0,1,.068,1.909,1.275,1.275,0,0,1-.6.813A3.3,3.3,0,0,1,125.744,32.656Zm-1.38-2.84a.36.36,0,0,0-.11-.3.7.7,0,0,0-.406-.106l-3.725.37-.005.828,0,.828,1.792-.162,1.791-.161a.765.765,0,0,0,.483-.219.665.665,0,0,0,.184-.471Zm-6.719.039c.005.257.023,3.437.023,3.693a1.189,1.189,0,0,1-.869,1.026c-.485.093-4.717.926-5.1,1.005s-.87-.414-.87-.82-.007-3.669-.007-3.669c0-.406.442-.733.82-.826s4.837-.951,5.126-1.008A.76.76,0,0,1,117.645,29.855Zm-1.181.979c0-.314-.136-.591-.613-.513-.612.1-2.615.461-3.284.591-.549.107-.762.314-.762.784V34.04c0,.335.206.584.555.52s3.285-.627,3.619-.7a.632.632,0,0,0,.5-.656C116.485,32.893,116.464,31.005,116.464,30.834Zm16.705-.444c-.428-.027-.9-.041-1.369-.048s-.954-.01-1.411-.011c-.3,0-1.881.012-1.914,0a.171.171,0,0,1-.084-.047.292.292,0,0,1-.06-.182,1.682,1.682,0,0,1,.007-.205v-.2a2.726,2.726,0,0,1,.027-.473c.031-.067.1-.1.255-.109.12,0,2.056.007,3.369.018l.306,0,.172,0c.371-.01.813.022,1.144.016l0-.956c-.578-.032-.966-.047-1.544-.061l-.106,0c-.322-.01-.673-.018-1.024-.023-1.373-.02-2.862,0-3.024,0a.933.933,0,0,0-.433.177.456.456,0,0,0-.22.3l-.013,1.109-.013,1.109a.424.424,0,0,0,.221.3.914.914,0,0,0,.46.156c.24,0,.487.009.731.012l.711.007c.48,0,.986.009,1.494.02s1.019.03,1.506.062c.141.01.2.067.227.153a1.271,1.271,0,0,1,.009.334l-.006.129-.006.129a.751.751,0,0,1-.044.352c-.044.066-.131.089-.311.089-.01,0-.5-.01-.69-.01l-.606,0-.713-.009c-.238,0-.477,0-.716,0-.412,0-.808,0-1.179.015s-.79.032-1.1.053l-.038.957c.53-.024,1.1-.046,1.542-.058s.85-.016,1.214-.016.666.006.961.014.571.02.86.032l.6.023.677.019a.768.768,0,0,0,.431-.176.53.53,0,0,0,.234-.366l.01-1.052.01-1.052a.544.544,0,0,0-.2-.338A.671.671,0,0,0,133.169,30.39Zm-23.484,1.219.05,2.183a.541.541,0,0,1-.176.418.705.705,0,0,1-.279.191l-5.39,1.685.03,1.853s-1.355.489-1.435.508c0-.091,0-2.17,0-2.6,0-.952-.034-2.7-.03-2.748s.031-.063.106-.089,1.727-.619,3.77-1.322c.608-.209,2.03-.64,2.319-.691a.957.957,0,0,1,.686.114A.7.7,0,0,1,109.685,31.609Zm-1.227,1.672c0-.152-.025-.615-.041-.766a.468.468,0,0,0-.128-.266.388.388,0,0,0-.278-.125l-.066,0s-1.208.344-1.86.564-2.289.847-2.289.847.024,1.591.024,1.627l4.137-1.33a.828.828,0,0,0,.326-.2A.529.529,0,0,0,108.458,33.281Zm17.977,19.446v1.511a.85.85,0,0,1-.11.482.441.441,0,0,1-.4.179.467.467,0,0,1-.408-.179.824.824,0,0,1-.119-.482V52.727a.2.2,0,1,0-.4,0V54.11a1.466,1.466,0,0,0,.2.84.833.833,0,0,0,.732.333.8.8,0,0,0,.731-.333,1.511,1.511,0,0,0,.182-.838V52.727a.2.2,0,1,0-.405,0Zm2.034.165a.193.193,0,1,0,0-.386h-1.133a.193.193,0,1,0,0,.386h.369v2.187a.2.2,0,1,0,.4,0V52.892Zm1.792,0a.193.193,0,1,0,0-.386h-1.133a.193.193,0,1,0,0,.386h.369v2.187a.2.2,0,1,0,.4,0V52.892Zm2.17.771h-.616c-.167,0-.188.085-.188.159a.183.183,0,0,0,.188.2h.434v.123a.745.745,0,0,1-.535.78.508.508,0,0,1-.491-.329,1.675,1.675,0,0,1-.146-.728,1.6,1.6,0,0,1,.174-.712.486.486,0,0,1,.426-.319.53.53,0,0,1,.423.287.17.17,0,0,0,.224.063.149.149,0,0,0,.1-.189.74.74,0,0,0-.752-.5.724.724,0,0,0-.709.4,1.843,1.843,0,0,0-.255.971,1.976,1.976,0,0,0,.235.992.818.818,0,0,0,.727.465.964.964,0,0,0,.48-.135,1.276,1.276,0,0,0,.477-.754,2.553,2.553,0,0,0,.038-.49C132.665,53.813,132.632,53.663,132.431,53.663Zm6.6-.771a.193.193,0,1,0,0-.386H137.9a.193.193,0,1,0,0,.386h.37v2.187a.2.2,0,1,0,.4,0V52.892ZM136.7,54.257l.064-.023a.981.981,0,0,0,.372-.24.749.749,0,0,0,.229-.633.887.887,0,0,0-.345-.659,1.166,1.166,0,0,0-.667-.187h-.607a.2.2,0,0,0-.162.065.231.231,0,0,0-.052.154v2.324a.192.192,0,0,0,.2.215.189.189,0,0,0,.2-.213v-.737l.375,0,.6.827a.208.208,0,0,0,.177.09c.118,0,.188-.062.191-.165a.272.272,0,0,0-.071-.176Zm-.777-.316v-1.05h.479a.571.571,0,0,1,.413.146.476.476,0,0,1,.165.349.575.575,0,0,1-.641.554Zm-1.6-1.237a.35.35,0,0,0-.28-.229.323.323,0,0,0-.281.239l-.743,2.333a.179.179,0,0,0,.033.166.2.2,0,0,0,.14.089c.1,0,.192-.014.229-.141l.112-.409h1.057l.122.4a.208.208,0,0,0,.2.141.21.21,0,0,0,.174-.08.25.25,0,0,0,.011-.22Zm.113,1.736h-.819l.435-1.5.457,1.5Zm-11.741-.552a1.961,1.961,0,0,0-.858-.258.365.365,0,0,1-.3-.43.456.456,0,0,1,.481-.31.642.642,0,0,1,.5.218c.109.132.307-.013.307-.122,0-.126-.193-.478-.779-.483a1.013,1.013,0,0,0-.589.168.7.7,0,0,0-.323.524.794.794,0,0,0,.221.629.807.807,0,0,0,.551.22.7.7,0,0,1,.616.315.334.334,0,0,1-.075.37.715.715,0,0,1-.472.161.761.761,0,0,1-.5-.2.266.266,0,0,0-.262-.085c-.143.048-.121.221-.11.251a.952.952,0,0,0,.842.448,1.047,1.047,0,0,0,.791-.282.789.789,0,0,0,.216-.56A.646.646,0,0,0,122.687,53.888Zm1.776-.976a.194.194,0,1,0,0-.387H123.33a.194.194,0,1,0,0,.387h.369V55.1a.2.2,0,1,0,.4,0V52.912ZM108.232,42.354a4.02,4.02,0,0,1,1.449-1.678c.308-.192.318-.271.314-.291s-.055-.054-.468-.057a2.939,2.939,0,0,0-1.658.7,3.786,3.786,0,0,0-1.175,1.892,7.374,7.374,0,0,0,.05,2.557s-1.048.49-1.4.689a2.19,2.19,0,0,0-.4-.772,1.042,1.042,0,0,0-1.159-.125.828.828,0,0,0-.474.852,1.505,1.505,0,0,0,.32.739,1.854,1.854,0,0,0-.756.464,1.111,1.111,0,0,0-.281,1.043.763.763,0,0,0,.826.474,2.417,2.417,0,0,0,1.159-.61,5.468,5.468,0,0,0,.471.494.987.987,0,0,0,.6.2,1.089,1.089,0,0,0,.493-.119.885.885,0,0,0,.444-.86c-.05-.491-.517-.683-.491-.863a29.041,29.041,0,0,1,7.509-2.922,27.9,27.9,0,0,1,5.432-.859,8.44,8.44,0,0,1,3.464.353,5.545,5.545,0,0,1,2.453,1.365l.017.015a2.292,2.292,0,0,0-1.273-2.008,4.626,4.626,0,0,0-2.037-.68,4.053,4.053,0,0,1,.619-.808A2.77,2.77,0,0,1,123.7,40.8a8.989,8.989,0,0,1,1.427-.082,1.078,1.078,0,0,0-.969-.658,3.318,3.318,0,0,0-1.636.148,3.911,3.911,0,0,0-2.061,2.113,24.273,24.273,0,0,0-2.9.015,4.824,4.824,0,0,1,.84-2.17,4.061,4.061,0,0,1,1.985-1.272,1.154,1.154,0,0,0,.328-.162c-.164-.159-.385-.321-1.2-.35a3.178,3.178,0,0,0-2.608,1.434,5.62,5.62,0,0,0-.819,2.552c-1.547.276-3.329.735-3.329.735a5.3,5.3,0,0,1,.393-1.837,4.344,4.344,0,0,1,1.634-1.77s.267-.173.329-.225a1.359,1.359,0,0,0-.67-.1,3.409,3.409,0,0,0-1.479.4A3.025,3.025,0,0,0,111.42,42.2c-.023.236.045,1.167,0,1.391a34.219,34.219,0,0,0-3.522,1.11A4.29,4.29,0,0,1,108.232,42.354ZM121.165,49s.39-.111.543-.163a1.144,1.144,0,0,0-.267-.19,2.344,2.344,0,0,0-1.143-.268,2.841,2.841,0,0,0-1.183.248,3.33,3.33,0,0,0-1.569,1.979s-.917.028-1.267.052l-1.316.089a3.757,3.757,0,0,1,.1-.665,3.156,3.156,0,0,1,.634-1.205,3.407,3.407,0,0,1,1.969-1.136c.07-.017.142-.035.182-.049a1.512,1.512,0,0,0-.861-.246,3.285,3.285,0,0,0-3.251,3.05l-.058.36s-.651.145-.95.205a10.62,10.62,0,0,0-1.583.395,4.7,4.7,0,0,1,.472-1.831,4.31,4.31,0,0,1,1.123-1.385,4.15,4.15,0,0,1,.364-.277,2.111,2.111,0,0,0-.5-.067,2.394,2.394,0,0,0-2.216,1.535,6.451,6.451,0,0,0-.389,2.509c-.494.121-1.617.549-2.077.728a4.19,4.19,0,0,1,.018-1.856,2.926,2.926,0,0,1,.75-1.4,4.1,4.1,0,0,1,.33-.3c-.03-.009-.128-.07-.582.031a2.4,2.4,0,0,0-1.7,1.645,10.187,10.187,0,0,0-.211,2.547c-.278.139-1.185.547-1.346.613a2.113,2.113,0,0,0-.243-.643.839.839,0,0,0-.7-.376,1.094,1.094,0,0,0-.468.114.6.6,0,0,0-.3.364.786.786,0,0,0,.047.609,1.988,1.988,0,0,0,.229.327c.068.083.208.285.208.285a2.355,2.355,0,0,0-.814.41.865.865,0,0,0-.278,1.13.73.73,0,0,0,.679.4,1.76,1.76,0,0,0,1.2-.595s.32.48.368.554a.758.758,0,0,0,.654.337.873.873,0,0,0,.411-.1.927.927,0,0,0,.446-.806,1.253,1.253,0,0,0-.332-.764l-.072-.1.657-.346a21.3,21.3,0,0,1,3.288-1.5,26,26,0,0,1,5.617-1.312,6.616,6.616,0,0,1,1.188-.069,4.659,4.659,0,0,1,1.436.319V50.2h.792A3.646,3.646,0,0,1,121.165,49Zm-2.75,7.35v2.894c-.289-.029-.65-.057-.935-.057a21.286,21.286,0,0,0-7.53,1.845,25.56,25.56,0,0,0-3.108,1.622,1.756,1.756,0,0,1,.787.862c.163.569-.2,1.1-.951,1.121-.675.023-.849-.573-1.058-.8-.063.034-.632.576-.827.685a1.132,1.132,0,0,1-.55.153.836.836,0,0,1-.675-.31.81.81,0,0,1-.164-.667,1.013,1.013,0,0,1,.536-.675,2.831,2.831,0,0,0,.559-.36c-.046-.19-.415-.5-.515-.766a.985.985,0,0,1,.309-1.071.879.879,0,0,1,1,.028c.381.227.581.932.642,1,.212-.144.848-.57,1.224-.838a4.724,4.724,0,0,1-.622-2.506c.2-1.343,1.567-2.254,2.245-1.927A3.143,3.143,0,0,0,107.9,58.7a2.938,2.938,0,0,0,.289,1.736s1.471-.585,2.012-.746a4.381,4.381,0,0,1-.083-2.933,2.715,2.715,0,0,1,2.426-1.468,3.541,3.541,0,0,0-1.425,3.94c.3-.069,1.993-.625,2.2-.689a4.126,4.126,0,0,1,.844-2.813,3.1,3.1,0,0,1,2.073-1.261,1.537,1.537,0,0,1,.513.065c-.006.068-.006.068-.134.156l-.1.066a8.564,8.564,0,0,0-1.8,1.964,3.18,3.18,0,0,0-.354,1.472l.007.064s.875-.158,1.55-.224,1.347-.08,1.347-.08a4.12,4.12,0,0,1,.4-.828A3.675,3.675,0,0,1,118.415,56.349Zm28.123,12.529a2.438,2.438,0,0,0-1.349,1.043c-.527.815-.721,1.725-.407,1.745.213.013.571,0,.655,0a11.14,11.14,0,0,1,1.116.05.356.356,0,0,0,.194-.1,1.635,1.635,0,0,0,.139-.228,4.526,4.526,0,0,1,1.6-2.25,1.728,1.728,0,0,1,1.035-.351,1.762,1.762,0,0,1,1.483.645c.133.191-.62-.177-1.785,1.017a4.1,4.1,0,0,0-.854,1.31c-.012.03.037.112.073.122.54.162,1.484.381,1.959.584a.236.236,0,0,0,.291-.094,3.572,3.572,0,0,1,1-1.014,2.613,2.613,0,0,1,1.449-.4l.1.012c1.09.138,1.159.669,1.216.755s-.239.079-.374.111a3.381,3.381,0,0,0-1.914,1.19c-.071.133.214.357.214.357a2.215,2.215,0,0,1,1.116,2.3c-.019.163,0,.24-.146.24a1.6,1.6,0,0,1-.433-.324,13.5,13.5,0,0,0-1.527-1.164,7.759,7.759,0,0,0-2.851-1.115,13.327,13.327,0,0,0-2.35-.237,19.4,19.4,0,0,0-5.217.771c-.309.086-1.416.4-2.385.709l-.6.187.392-.343a13.439,13.439,0,0,0,1.195-1.294l.268-.346.456-.111,1.96-.433a.545.545,0,0,0,.4-.442,3.684,3.684,0,0,1,.937-2.041,2.512,2.512,0,0,1,1.851-1.172C146.327,68.508,146.684,68.806,146.538,68.878Zm-14.1,14.766a1.449,1.449,0,0,1-.564-1.026.98.98,0,0,1,.592-.911,1.386,1.386,0,0,1,1.21.107c.44.308.459.619.617,1.074a.151.151,0,0,0,.057.027c.378-.191,1.045-.494,1.5-.748l.241-.133s.1-.031.061-.17a4.841,4.841,0,0,1-.228-1.49,3.318,3.318,0,0,1,.537-1.571c.7-1.2,2.032-1.094,1.9-.98a3.974,3.974,0,0,0-.91,1.884,3.3,3.3,0,0,0,.01,1.176c.025.175.041.386.148.446s.531-.162.792-.261c.332-.125.788-.182,1.093-.265.177-.048.125-.144.126-.181a5.372,5.372,0,0,1,.875-3.062,2.808,2.808,0,0,1,1.926-1.091c.279-.028.683.1.557.182a4.522,4.522,0,0,0-.473.345,4.822,4.822,0,0,0-1.071,1.209,3.629,3.629,0,0,0-.355,2.179,6.87,6.87,0,0,0,1.79-.233.3.3,0,0,0,.184-.212c.217-.691.451-1.993,1.18-2.48a2.113,2.113,0,0,1,1.257-.488c.339-.019,1.233.252,1.033.351a3.7,3.7,0,0,0-1.414,1.069,2.469,2.469,0,0,0-.513,1.272c-.057.258.228.329.228.329a12.815,12.815,0,0,1,1.463.184c.144.026.253-.163.287-.222a3.533,3.533,0,0,1,.815-.923,1.848,1.848,0,0,1,1.151-.512c.905-.005,1.354.656,1.227.7a3.6,3.6,0,0,0-1.954,1.289c-.028.035-.111.078.024.2a4.224,4.224,0,0,1,1.505,2.667c0,.084.055.452-.073.509a8.861,8.861,0,0,0-2.007-1.783,6.92,6.92,0,0,0-3.353-.76,15.034,15.034,0,0,0-4.187.629,19.149,19.149,0,0,0-4.324,1.919,1.32,1.32,0,0,1,.474.62,1.006,1.006,0,0,1-.31,1.221.866.866,0,0,1-.794.13c-.656-.091-.831-.76-.914-.97a1,1,0,0,1-.461.521.973.973,0,0,1-1.427-.243.918.918,0,0,1,.149-1.248C132.387,83.69,132.438,83.644,132.438,83.644Zm2.275,8.1a4.6,4.6,0,0,1-.293-.67,2.872,2.872,0,0,1-.175-1.529,1.475,1.475,0,0,1,1.337-1.177,1.5,1.5,0,0,0-.386,1.265,3.131,3.131,0,0,0,.406,1.287c.055.074.093.045.119.032a11.312,11.312,0,0,1,1.121-.534.08.08,0,0,0,.029-.062,3.294,3.294,0,0,1,.291-2.564,2.265,2.265,0,0,1,1.629-1.142h0c.031,0,.448.014.475.169a3.268,3.268,0,0,0-1.08,1.324,3.011,3.011,0,0,0-.111,1.679c0,.019.055.042.075.037.428-.116.844-.223,1.285-.316a.184.184,0,0,0,.084-.086,3.861,3.861,0,0,1,1.175-2.082,2.915,2.915,0,0,1,1.6-.671c.765-.028.866.236.95.34.056.07-.162-.026-.523.127a3.488,3.488,0,0,0-1.138.908,2.256,2.256,0,0,0-.535,1.191c0,.028.01.085.027.088a7.531,7.531,0,0,1,1.305.314.1.1,0,0,0,.073-.024,4.786,4.786,0,0,1,.941-1.26,2.066,2.066,0,0,1,1.318-.523,1.366,1.366,0,0,1,.839.261s.3.234.227.269a2.741,2.741,0,0,0-1.338.842c-.52.605-.533.76-.566.9s-.022.2.128.3c.817.528.917.971.959,1.257.048.32-.148.766-.411.432a2.811,2.811,0,0,0-1.362-.959,6.743,6.743,0,0,0-2.372-.471,7.289,7.289,0,0,0-2.214.371,9.034,9.034,0,0,0-2.674,1.33c-.116.09-.236.177-.356.264a8.785,8.785,0,0,0-.723.605c-.1.1.071.158.149.2.942.416.965,1.045.72,1.33a.669.669,0,0,1-.808.116c-.713-.457-.578-.854-.891-.757-.217.068-.434.6-.6.79a.745.745,0,0,1-1.02.138.822.822,0,0,1-.154-1.131,6.362,6.362,0,0,1,.556-.469c-.042-.028-.511-.329-.7-.49a.781.781,0,0,1,.045-1.149.844.844,0,0,1,1.19.194s.338.463.366.493.062.026.1-.008c.135-.116.851-.665.9-.705A.054.054,0,0,0,134.713,91.747Zm4.353-26.476a.866.866,0,0,1-.321,0,.43.43,0,0,1-.267-.173.644.644,0,0,1-.141-.268c0-.064.059-.119.109-.158a1.567,1.567,0,0,0,.408-.441,1.147,1.147,0,0,0,.133-.51c0-.031-.063-.047-.085-.026-.11.107-.18.262-.308.346a.657.657,0,0,1-.4.113.392.392,0,0,1-.255-.124.807.807,0,0,1-.134-.271c-.032-.084.1-.148.186-.165a1.267,1.267,0,0,0,.53-.16.6.6,0,0,0,.24-.265.874.874,0,0,0,.05-.274c0-.043.024-.068-.017-.055-.1.032-.167.091-.253.115a.628.628,0,0,1-.486-.03,1.251,1.251,0,0,1-.363-.419c-.02-.031,0-.095.034-.1.151-.03.285-.2.4-.4a.707.707,0,0,0,.064-.13c.022-.058.091-.118.1-.146a1.253,1.253,0,0,0,.031-.362.442.442,0,0,0-.141-.267c-.021-.024-.105-.028-.12,0-.067.125-.027.287-.1.409a1.232,1.232,0,0,1-.313.331c-.062.047-.15.112-.22.079a.45.45,0,0,1-.236-.3.721.721,0,0,1,.094-.442,5.027,5.027,0,0,1,.5-.789c.142-.18.291-.3.42-.5.089-.132.156-.411.038-.455s-.188.232-.294.294a4.667,4.667,0,0,0-1.15.627,1.977,1.977,0,0,0-.345.723c-.054.141-.017.356-.077.493-.023.052-.132.1-.176.069a1.024,1.024,0,0,1-.283-.451.587.587,0,0,1,.024-.356c.018-.048-.018-.091-.053-.069a.765.765,0,0,0-.346.409.978.978,0,0,0,.058.707,9.18,9.18,0,0,0,.649.947c.17.288.391.593.542.868a1.111,1.111,0,0,1,.178.785,1.475,1.475,0,0,1-.421.746c-.027.017-.086.046-.111.027a8.647,8.647,0,0,0-.69-.583,2.823,2.823,0,0,0-.958-.384,6.193,6.193,0,0,0-1.27-.01c-.445.014-.89.078-1.334.063a3.059,3.059,0,0,1-1.068-.141,1.184,1.184,0,0,1-.608-.525,1.477,1.477,0,0,1-.135-.823,1.573,1.573,0,0,1,.2-.653,1.037,1.037,0,0,1,.413-.425.932.932,0,0,1,.652-.09,1.115,1.115,0,0,1,.3.194,2,2,0,0,1,.248.242c.01.013.069,0,.072-.015a1.806,1.806,0,0,0-.125-.882,3.765,3.765,0,0,0-.392-.612c-.014-.047.126-.043.176-.047a1.032,1.032,0,0,1,.671.2,1.155,1.155,0,0,1,.329.346c.009.015.047,0,.047-.015a1.374,1.374,0,0,0-.343-1,1.135,1.135,0,0,0-.423-.371c-.1-.036.075-.115.163-.116a1.169,1.169,0,0,1,.561.083.55.55,0,0,1,.17.124.821.821,0,0,0,.117.09c.032.019.066-.041.053-.077a.85.85,0,0,0-.125-.3,8.565,8.565,0,0,0-.9-.775c-.024-.021-.084-.049-.1-.075a1.423,1.423,0,0,1-.2-.4c-.019-.054-.1-.107-.131-.184a.315.315,0,0,1,.025-.23c.092-.174.177-.2.371-.292a2.166,2.166,0,0,1,.454-.093c.048-.008.095.045.141.031.026-.008.04-.075-.035-.13a1.085,1.085,0,0,0-.623-.2,1.864,1.864,0,0,0-.883.064,1.61,1.61,0,0,1-.687.2.954.954,0,0,1-.455-.089.372.372,0,0,1-.2-.252.987.987,0,0,1,.126-.52.653.653,0,0,1,.3-.258c.084-.043.141-.076.134-.135s-.122-.031-.166-.015a2.6,2.6,0,0,0-.754.294,3.1,3.1,0,0,0-.456.523.29.29,0,0,1-.11.079c-.051.022-.1.009-.157.03-.189.072-.382.168-.565.254s-.33.232-.517.3a1.6,1.6,0,0,1-.451.072h-.013c-.305-.027-.7-.025-.772.337a.168.168,0,0,0,.081.189.85.85,0,0,0,.166.081l.187.067a.226.226,0,0,1,.113.065l.01.015,0,.017,0,.018a.049.049,0,0,1,0,.017.146.146,0,0,1-.131.092.712.712,0,0,1-.484-.062l-.033-.018a.161.161,0,0,0-.206.032,12.629,12.629,0,0,1-1.019.748.454.454,0,0,0-.1.082.168.168,0,0,0-.037.077.218.218,0,0,0,0,.072c.013.08-.082.118-.145.137a.175.175,0,0,0-.131.16.572.572,0,0,0,.012.175.207.207,0,0,0,.3.152c.087-.034.175-.063.265-.089a.147.147,0,0,1,.144.023.156.156,0,0,1,.016.02l.007.015,0,.016a.134.134,0,0,1-.016.076,1.232,1.232,0,0,1-.114.164c-.043.06-.075.149-.005.2a.315.315,0,0,0,.418-.02.716.716,0,0,0,.136-.2.338.338,0,0,1,.171-.174,1.244,1.244,0,0,1,.475-.1h.009a.58.58,0,0,1,.326.085.16.16,0,0,1,.068.075l.007.021,0,.023c0,.008,0,.009,0,.017v.01a1.1,1.1,0,0,1-.137.313c-.03.069-.046.157-.078.245s-.08.178-.106.248-.041.076-.1.127c-.142.12-.34.239-.478.362a4.013,4.013,0,0,0-.649.79,1.068,1.068,0,0,0-.123.295l0,.009c-.05.253-.1.558-.4.39a7.607,7.607,0,0,1-.827-.527,1.142,1.142,0,0,1-.25-.269c-.262-.381-.585-.043-.757.234a12.362,12.362,0,0,1-.9,1.23.82.82,0,0,0-.126.208,1,1,0,0,1-.182.289.63.63,0,0,0-.129.419,1.155,1.155,0,0,1-.229.72.662.662,0,0,0-.183.439c0,.143,0,.286.009.429.006.106.047.2.169.192a.288.288,0,0,0,.081-.023,2.394,2.394,0,0,0,.61-.342.733.733,0,0,0,.076-.071.2.2,0,0,0,.038-.222.215.215,0,0,0-.04-.055c-.013-.013-.026-.026-.04-.038a.26.26,0,0,1-.1-.129c0-.012-.005-.024-.007-.036a.414.414,0,0,1,.011-.145,1.831,1.831,0,0,0,.036-.19.279.279,0,0,1,.1-.194c.1-.083.2-.162.3-.242a.426.426,0,0,0,.123-.494.507.507,0,0,1-.025-.1.469.469,0,0,1,0-.053.474.474,0,0,1,.1-.213c.066-.1.132-.188.2-.281a.69.69,0,0,1,.419-.315.75.75,0,0,1,.608.2,1.763,1.763,0,0,1,.349.764,2.616,2.616,0,0,0,.279.647.314.314,0,0,0,.487.092l.028-.018a.183.183,0,0,1,.032-.014.146.146,0,0,1,.166.07,2.644,2.644,0,0,0,.27.28c.114.07.017.159-.078.157-.078,0-.156,0-.234,0a.482.482,0,0,0-.2.033,4.876,4.876,0,0,1-1.44.223.507.507,0,0,0-.094.009.188.188,0,0,0-.135.1.493.493,0,0,0-.022.053c-.018.046-.035.092-.051.139a.472.472,0,0,0,0,.343,4.806,4.806,0,0,1,.146,2.052.859.859,0,0,0,.164.7.46.46,0,0,0,.228.146.3.3,0,0,1,.1.053.385.385,0,0,1,.092.26.609.609,0,0,0,.156.361,1.426,1.426,0,0,0,.448.373.583.583,0,0,0,.058.023.185.185,0,0,0,.246-.094,1.551,1.551,0,0,0,.148-.709.253.253,0,0,0-.195-.238.137.137,0,0,0-.035-.008.159.159,0,0,0-.113.04l-.011.007a.241.241,0,0,1-.063.024.186.186,0,0,1-.033,0,.188.188,0,0,1-.034,0,.125.125,0,0,1-.032-.008.168.168,0,0,1-.03-.015.369.369,0,0,1-.135-.167.66.66,0,0,1-.025-.432c.011-.041.02-.083.028-.125a.518.518,0,0,0,.007-.2.658.658,0,0,0-.052-.195c-.051-.111-.066-.153-.16-.185l-.031-.012a.429.429,0,0,1-.117-.064.171.171,0,0,1-.018-.02.124.124,0,0,1-.01-.1,3.976,3.976,0,0,0,.033-.975c0-.107-.023-.219.067-.3.224-.188.6-.038.834.05a5.624,5.624,0,0,0,.942.243l.008,0a2.153,2.153,0,0,0,1.469-.4c.041-.034.045-.044.09-.017.171.1.275.218.446.326a4.575,4.575,0,0,0,1.248.572,8.57,8.57,0,0,0,1.789-.016,1.594,1.594,0,0,1,.44.094.076.076,0,0,1,.053.079c-.015.219-.1.427-.1.646a.767.767,0,0,0,.125.331c.052.1.087.239.149.335l.062.115a1.188,1.188,0,0,1,.02,1.47,5.548,5.548,0,0,1-.723.591,1.634,1.634,0,0,1-.837.324.848.848,0,0,0-.541.23,2.552,2.552,0,0,1-.572.447.3.3,0,0,0-.182.194,3.54,3.54,0,0,0-.225.759c-.032.15.079.2.21.182a2.872,2.872,0,0,0,.649-.175.212.212,0,0,0,.121-.309l-.07-.19a.228.228,0,0,1-.015-.057v-.023l0-.022a.2.2,0,0,1,.035-.06.488.488,0,0,1,.13-.114.293.293,0,0,1,.206-.054c.048.009.095.022.142.034a.6.6,0,0,0,.714-.258c.019-.029.037-.059.055-.09a.773.773,0,0,1,.2-.225,8.772,8.772,0,0,1,1.81-.891.176.176,0,0,0,.123-.109.6.6,0,0,0-.012-.235,3.721,3.721,0,0,1-.012-.676c.006-.155.061-.435.263-.44a.282.282,0,0,1,.2.127,1.716,1.716,0,0,0,.786.562c.093.032.184.066.274.106a.788.788,0,0,1,.453.595.518.518,0,0,1-.09.409c-.22.285-.42.578-.611.884a1.312,1.312,0,0,1-.38.4,7.394,7.394,0,0,0-.678.517,1.334,1.334,0,0,0-.426.449,9.767,9.767,0,0,0-.313.94c-.051.184.062.226.224.189a2.748,2.748,0,0,0,.692-.278.34.34,0,0,0,.089-.071.2.2,0,0,0,.046-.133.439.439,0,0,0-.1-.228.285.285,0,0,1-.048-.272.242.242,0,0,1,.021-.039.239.239,0,0,1,.14-.1c.174-.055.349-.1.526-.147a1.073,1.073,0,0,0,.609-.306.361.361,0,0,0,.067-.136v0l0-.013.01-.04a2.862,2.862,0,0,1,1.339-1.69.277.277,0,0,0,.139-.221.478.478,0,0,0-.028-.267l-.49-.76a1.443,1.443,0,0,1-.27-.666,1.648,1.648,0,0,1,.187-.734,1.926,1.926,0,0,0,.12-.2c.087-.191.254-.256.384-.429a4.052,4.052,0,0,0,.366-.526,4.471,4.471,0,0,0,.262-.75c.063-.2-.035-.41-.016-.614a.423.423,0,0,1,.094-.2.726.726,0,0,1,.341-.264.741.741,0,0,1,.431.028c.256.074.426.173.685.233a.79.79,0,0,0,.409-.025.8.8,0,0,0,.374-.217C139.1,65.344,139.1,65.267,139.066,65.271Zm-8.948-4.148a.507.507,0,0,1-.539.534c-.1,0-.135-.154-.144-.38,0-.155,0-.206,0-.257,0-.107.006-.206.014-.314.006-.073.006-.149.008-.223s0-.173,0-.26c-.009-.187,0-.376-.028-.562a3.937,3.937,0,0,0-.16-.668c-.045-.14-.089-.259-.147-.394-.026-.06-.076-.131-.106-.19a.514.514,0,0,0-.111-.147c-.068-.063-.164-.092-.224-.162-.021-.025,0-.059.028-.077a.7.7,0,0,1,.8.1,1.634,1.634,0,0,1,.6,1.16A6.489,6.489,0,0,1,130.118,61.123Zm-27.2,12.709h18.195a10.064,10.064,0,0,1-2.681-6.715v-.288h-16.61A31.168,31.168,0,0,0,102.914,73.832Zm26.311,8.783H106.6q.9,1.624,1.948,3.23a35.858,35.858,0,0,0,2.875,3.784h17.8Zm29.183-31.389h-16.7v1.379l0,3.011,0,1.777h16.589C158.328,55.379,158.369,53.293,158.408,51.226Zm.188-10.381a.31.31,0,0,0-.045-.021,72.1,72.1,0,0,0-9.158-3,85.189,85.189,0,0,0-13.073-2.121c-2.093-.186-3.988-.253-6.079-.281v6.858h28.33C158.579,41.791,158.588,41.311,158.6,40.845ZM140.681,51.007,119.344,51c-.042,0-.047.019-.047.061l.024,15.826a9.856,9.856,0,0,0,3.54,7.405,11.241,11.241,0,0,0,7.228,2.751,11.1,11.1,0,0,0,5.572-1.574,10.65,10.65,0,0,0,4.612-5.522,7.508,7.508,0,0,0,.457-2.446l.007-16.446A.05.05,0,0,0,140.681,51.007Zm-.449,16.359a7.288,7.288,0,0,1-.435,2.353,10.223,10.223,0,0,1-4.4,5.31,10.512,10.512,0,0,1-5.313,1.514,10.67,10.67,0,0,1-6.893-2.646,9.509,9.509,0,0,1-3.375-7.122L119.8,51.559c0-.041,0-.059.046-.059l20.344.007a.048.048,0,0,1,.053.045Zm-6.167,9.784a10.607,10.607,0,0,1-2.216.581h0a1.636,1.636,0,0,0,.071.183.419.419,0,0,0,.4.274c.244.036.426-.135.607-.539.027-.033.131-.078.155-.039.191.314.631.6.932.441a.5.5,0,0,0,.146-.716S134.086,77.191,134.065,77.15Zm38.126-45.681H173.8a2.556,2.556,0,0,1,1.383.319,1.28,1.28,0,0,1,.5,1.166,2.012,2.012,0,0,1-.074.572.992.992,0,0,1-.295.448,1.615,1.615,0,0,1-.624.305,4.236,4.236,0,0,1-1.081.111h-1.416Zm-1.071-.952v8.747h1.071V35.339H173.9l1.711,3.925h1.176l-1.8-4.081a2.453,2.453,0,0,0,1.451-.81,2.142,2.142,0,0,0,.518-1.4,3.069,3.069,0,0,0-.122-.843,2.023,2.023,0,0,0-.44-.8,2.285,2.285,0,0,0-.888-.586,4,4,0,0,0-1.471-.227Zm.45,9.689a5.749,5.749,0,0,1-3.138-3.138,6.186,6.186,0,0,1,0-4.667,5.731,5.731,0,0,1,3.138-3.135,5.884,5.884,0,0,1,7.8,3.135,6.186,6.186,0,0,1,0,4.667,5.731,5.731,0,0,1-3.135,3.138,6.186,6.186,0,0,1-4.667,0m5.064.976a6.975,6.975,0,0,0,2.219-1.505,7.088,7.088,0,0,0,1.5-2.22,6.946,6.946,0,0,0,0-5.446,7.13,7.13,0,0,0-1.5-2.219,6.975,6.975,0,0,0-2.219-1.505,7.025,7.025,0,0,0-5.464,0,7.02,7.02,0,0,0-2.219,1.505,7.27,7.27,0,0,0-1.5,2.219,6.992,6.992,0,0,0,0,5.446,7.227,7.227,0,0,0,1.5,2.22,7.02,7.02,0,0,0,2.219,1.505,7.037,7.037,0,0,0,5.464,0"/></svg>